<svg xmlns="http://www.w3.org/2000/svg" xmlns:xlink="http://www.w3.org/1999/xlink" viewBox="0 0 2564.27 1078.97">
  <defs>
    <style>
      .\35 7796eb8-1452-4474-8e0d-2244006fa490 {
        fill: #4f5c8c;
      }

      .\38 a588f36-5947-47c5-b8d6-3655d6e80135 {
        fill: #d6374a;
      }

      .\38 79c7484-7beb-4632-a3d7-559eef09fa7c {
        fill: url(#55304298-a579-4c2d-af8d-3b57c727a81b);
      }

      .\31 38f0288-01db-4022-8a3f-aecb08e5d56e {
        fill: url(#06c5ac04-dc66-4e01-a23a-da761f27f16c);
      }

      .\38 89ac390-b8ae-4af9-a689-5bf76a78693d {
        fill: url(#36863536-1770-46bf-b80a-50c0d3d4a163);
      }

      .\32 451384b-9b35-4f84-87e3-d587f19131d3 {
        fill: url(#dd78e9b1-3600-440c-9830-582389a23dad);
      }

      .f60f4c54-a479-4de2-8213-bfd3357f98df {
        fill: url(#cf538f04-96fb-4f6b-842b-318b9efa339f);
      }
    </style>
    <linearGradient id="55304298-a579-4c2d-af8d-3b57c727a81b" data-name="Degradado sin nombre 53" x1="343.79" y1="349.24" x2="335.01" y2="432.78" gradientUnits="userSpaceOnUse">
      <stop offset="0"/>
      <stop offset="1" stop-opacity="0"/>
    </linearGradient>
    <linearGradient id="06c5ac04-dc66-4e01-a23a-da761f27f16c" data-name="Degradado sin nombre 38" x1="346.89" y1="389.63" x2="358.73" y2="305.38" xlink:href="#55304298-a579-4c2d-af8d-3b57c727a81b"/>
    <linearGradient id="36863536-1770-46bf-b80a-50c0d3d4a163" data-name="Degradado sin nombre 38" x1="280.41" y1="562.15" x2="349.57" y2="584.46" xlink:href="#55304298-a579-4c2d-af8d-3b57c727a81b"/>
    <linearGradient id="dd78e9b1-3600-440c-9830-582389a23dad" data-name="Degradado sin nombre 30" x1="535.08" y1="430.9" x2="614.05" y2="415.33" xlink:href="#55304298-a579-4c2d-af8d-3b57c727a81b"/>
    <linearGradient id="cf538f04-96fb-4f6b-842b-318b9efa339f" data-name="Degradado sin nombre 33" x1="482.26" y1="410.17" x2="561.16" y2="394.61" gradientUnits="userSpaceOnUse">
      <stop offset="0" stop-opacity="0"/>
      <stop offset="1"/>
    </linearGradient>
  </defs>
  <title>logo</title>
  <g id="bd500130-70aa-4bfa-9777-dcfb7e7c4964" data-name="Capa 2">
    <g id="3874df61-020e-4d62-951c-9f642dec9e25" data-name="Capa 1">
      <g>
        <g>
          <g>
            <path class="57796eb8-1452-4474-8e0d-2244006fa490" d="M1555.49,325.32c-5.93,6.52-10.08,8.3-15.42,8.3a17.2,17.2,0,0,1-17.19-17.19,18.41,18.41,0,0,1,3-10.09c16.61-26.08,48.62-46.83,98.43-46.83,68.78,0,106.72,40.32,106.72,100.79V523.35a18.38,18.38,0,1,1-36.76,0V502c-14.82,27.87-49.21,42.69-84.79,42.69-62.85,0-102.57-30.24-102.57-84.79,0-52.17,39.72-83.6,103.76-83.6h83.6v-16c0-40.31-26.68-65.22-70-65.22C1592.84,295.08,1573.87,304.57,1555.49,325.32Zm138.74,109.1v-24.9h-83.6c-38.54,0-65.22,16-65.22,50.39,0,30.83,21.35,50.4,67.59,50.4C1654.51,510.31,1694.23,484.82,1694.23,434.42Z"/>
            <path class="57796eb8-1452-4474-8e0d-2244006fa490" d="M1609.44,548.05c-66.32,0-105.92-32.95-105.92-88.14,0-53.63,41-87,107.11-87h80.25V360.3c0-38.74-24.9-61.87-66.61-61.87-29.13,0-47.71,8.16-66.27,29.11l0,0c-6.15,6.77-11.17,9.4-17.9,9.4a20.56,20.56,0,0,1-20.54-20.54,21.76,21.76,0,0,1,3.44-11.81c11.55-18.15,40-48.46,101.3-48.46,67.89,0,110.07,39.91,110.07,104.14V523.35a21.73,21.73,0,1,1-43.46,0v-10C1674.14,535,1644.05,548.05,1609.44,548.05Zm1.19-168.39c-62.87,0-100.41,30-100.41,80.25,0,51,37.09,81.44,99.22,81.44,37.06,0,68.41-15.68,81.83-40.91l6.31-11.86v34.77a15,15,0,1,0,30.06,0v-163c0-61-38.64-97.44-103.37-97.44-58.11,0-84.84,28.37-95.6,45.28a15,15,0,0,0-2.44,8.29,13.86,13.86,0,0,0,13.84,13.84c4.14,0,7.43-1.14,12.92-7.18,19.74-22.28,40.39-31.36,71.28-31.36,45.22,0,73.31,26.28,73.31,68.57v19.36Zm2.37,134c-45.74,0-70.94-19.09-70.94-53.75,0-34.16,25-53.74,68.57-53.74h86.95v28.25C1697.58,488.86,1653.74,513.66,1613,513.66Zm-2.37-100.79c-23.11,0-61.87,6.11-61.87,47,0,30.78,22.22,47,64.24,47,37.51,0,77.88-22.7,77.88-72.54V412.87Z"/>
          </g>
          <g>
            <path class="57796eb8-1452-4474-8e0d-2244006fa490" d="M1840.1,308.12c11.86-27.27,41.5-47.43,82.41-47.43a18.38,18.38,0,1,1,0,36.76c-54.55,0-82.41,37.95-82.41,92.5V522.76a19,19,0,1,1-37.95,0V282a19,19,0,1,1,37.95,0Z"/>
            <path class="57796eb8-1452-4474-8e0d-2244006fa490" d="M1821.13,545.09a22.09,22.09,0,0,1-22.33-22.33V282a22.33,22.33,0,1,1,44.65,0v13c15.83-23.55,44.94-37.72,79.06-37.72a21.73,21.73,0,1,1,0,43.46c-49.5,0-79.06,33.33-79.06,89.15V522.76A22.09,22.09,0,0,1,1821.13,545.09Zm0-278.68A15.46,15.46,0,0,0,1805.5,282V522.76a15.63,15.63,0,1,0,31.25,0V390c0-60,32.06-95.85,85.76-95.85a15,15,0,1,0,0-30.06c-36.75,0-67.16,17.4-79.34,45.42l-6.42,14.77V282A15.45,15.45,0,0,0,1821.13,266.41Z"/>
          </g>
          <g>
            <path class="57796eb8-1452-4474-8e0d-2244006fa490" d="M1981.22,184.8c0-17.19,8.3-23.72,22.53-23.72s22.53,6.53,22.53,23.72c0,14.23-8.3,22.53-22.53,22.53S1981.22,199,1981.22,184.8Zm41.5,338a19,19,0,1,1-38,0V282a19,19,0,1,1,38,0Z"/>
            <path class="57796eb8-1452-4474-8e0d-2244006fa490" d="M2003.75,545.09a22.09,22.09,0,0,1-22.33-22.33V282a22.33,22.33,0,1,1,44.65,0V522.76A22.09,22.09,0,0,1,2003.75,545.09Zm0-278.68A15.46,15.46,0,0,0,1988.12,282V522.76a15.63,15.63,0,1,0,31.25,0V282A15.45,15.45,0,0,0,2003.75,266.41Zm0-55.73c-16,0-25.89-9.92-25.89-25.88,0-18,8.71-27.07,25.89-27.07s25.88,9.11,25.88,27.07C2029.63,200.76,2019.71,210.68,2003.75,210.68Zm0-46.25c-13.45,0-19.18,6.09-19.18,20.37,0,12.37,6.81,19.18,19.18,19.18s19.18-6.81,19.18-19.18C2022.93,170.52,2017.19,164.43,2003.75,164.43Z"/>
          </g>
          <g>
            <path class="57796eb8-1452-4474-8e0d-2244006fa490" d="M2204.15,259.51c94.87,0,113.25,75.3,113.25,115.62,0,17.19,0,37.94-23.72,37.94H2120.55c0,58.7,33.8,96.65,89.53,96.65,34.39,0,54.55-13.05,71.15-25.5,3.56-2.37,5.93-3.56,10.67-3.56a17.21,17.21,0,0,1,17.2,17.2c0,6.52-3,10.08-6.52,13.64-8.9,8.89-39.73,33.2-92.5,33.2-78.85,0-128.07-43.28-128.07-142.89C2082,310.5,2127.07,259.51,2204.15,259.51Zm0,34.38c-51.58,0-80,33.21-83.6,86h159.5C2280.05,337.18,2265.22,293.89,2204.15,293.89Z"/>
            <path class="57796eb8-1452-4474-8e0d-2244006fa490" d="M2210.08,548.05c-86,0-131.42-50.57-131.42-146.24,0-92.57,45.74-145.65,125.49-145.65,111,0,116.6,99.1,116.6,119,0,17.42,0,41.29-27.07,41.29H2123.94c1.26,55.58,34,89.95,86.14,89.95,33.26,0,52.39-12.27,69.14-24.82,4.34-2.9,7.28-4.24,12.68-4.24a20.57,20.57,0,0,1,20.55,20.55c0,7.84-3.71,12.21-7.5,16C2299.24,519.58,2267.82,548.05,2210.08,548.05Zm-5.93-285.19c-75.49,0-118.79,50.65-118.79,139,0,92.59,42,139.54,124.72,139.54,55.1,0,84.75-26.84,90.13-32.22,3.24-3.25,5.54-6,5.54-11.27A13.87,13.87,0,0,0,2291.9,484c-3.91,0-5.69.92-8.81,3-16.73,12.55-37.69,26.06-73,26.06-57.29,0-92.88-38.32-92.88-100v-3.35h176.48c18.91,0,20.37-14.34,20.37-34.59C2314.05,356.38,2308.75,262.86,2204.15,262.86Zm79.25,120.36H2117l.24-3.57c3.81-56.63,35.5-89.11,86.94-89.11,51.84,0,79.25,30.89,79.25,89.33Zm-159.22-6.7h152.49c-1-52.61-25.37-79.28-72.52-79.28S2128.79,325.36,2124.18,376.52Z"/>
          </g>
          <g>
            <path class="57796eb8-1452-4474-8e0d-2244006fa490" d="M2414.05,133.81V472.37c0,23.71,7.71,33.79,23.72,33.79a17.79,17.79,0,0,1,0,35.58c-39.73,0-61.66-23.73-61.66-69.37V133.81c0-10.08,8.89-19,19-19A19.1,19.1,0,0,1,2414.05,133.81Z"/>
            <path class="57796eb8-1452-4474-8e0d-2244006fa490" d="M2437.77,545.09c-41.93,0-65-25.83-65-72.72V133.81c0-11.89,10.43-22.33,22.32-22.33a22.35,22.35,0,0,1,22.32,22.33V472.37c0,26.82,10.3,30.44,20.37,30.44a21.14,21.14,0,0,1,0,42.28Zm-42.69-426.9c-8.18,0-15.62,7.44-15.62,15.62V472.37c0,43.19,20.16,66,58.31,66a14.44,14.44,0,0,0,0-28.88c-18.21,0-27.07-12.15-27.07-37.14V133.81A15.83,15.83,0,0,0,2395.08,118.19Z"/>
          </g>
        </g>
        <g>
          <path class="8a588f36-5947-47c5-b8d6-3655d6e80135" d="M1194.59,739.48c0,97.23-45.06,142.89-121.55,142.89-67.59,0-116.21-38.54-116.21-116.81V471.48a19,19,0,0,1,37.95,0V635.71c13.63-19,42.69-38.53,80.64-38.53C1151.9,597.18,1194.59,642.24,1194.59,739.48ZM994.78,765.56c0,56.33,32.61,82.42,78.26,82.42,54.55,0,83.6-34.39,83.6-108.5,0-72.93-29.64-107.91-83.6-107.91-55.73,0-78.26,52.17-78.26,52.17Z"/>
          <path class="8a588f36-5947-47c5-b8d6-3655d6e80135" d="M1284.13,663c-5.93,6.52-10.08,8.3-15.42,8.3a17.21,17.21,0,0,1-17.19-17.19,18.36,18.36,0,0,1,3-10.08c16.6-26.09,48.62-46.84,98.42-46.84,68.78,0,106.72,40.31,106.72,100.79V861a18.38,18.38,0,0,1-36.76,0V839.68c-14.82,27.87-49.21,42.69-84.78,42.69-62.85,0-102.58-30.24-102.58-84.79,0-52.17,39.73-83.6,103.76-83.6h83.6V698c0-40.31-26.68-65.22-70-65.22C1321.48,632.75,1302.51,642.24,1284.13,663Zm138.74,109.1v-24.9h-83.6c-38.54,0-65.22,16-65.22,50.39,0,30.83,21.35,50.4,67.6,50.4C1383.15,848,1422.87,822.48,1422.87,772.09Z"/>
          <path class="8a588f36-5947-47c5-b8d6-3655d6e80135" d="M1568.74,645.79c11.86-27.27,41.5-47.43,82.42-47.43a18.39,18.39,0,0,1,0,36.77c-54.55,0-82.42,37.94-82.42,92.49V860.43a19,19,0,0,1-38,0V619.71a19,19,0,1,1,38,0Z"/>
          <path class="8a588f36-5947-47c5-b8d6-3655d6e80135" d="M1738.32,663c-5.93,6.52-10.08,8.3-15.42,8.3a17.21,17.21,0,0,1-17.19-17.19,18.44,18.44,0,0,1,3-10.08c16.6-26.09,48.62-46.84,98.43-46.84,68.78,0,106.72,40.31,106.72,100.79V861a18.38,18.38,0,1,1-36.76,0V839.68c-14.82,27.87-49.21,42.69-84.78,42.69-62.85,0-102.58-30.24-102.58-84.79,0-52.17,39.73-83.6,103.76-83.6h83.6V698c0-40.31-26.68-65.22-70-65.22C1775.67,632.75,1756.7,642.24,1738.32,663Zm138.74,109.1v-24.9h-83.6c-38.54,0-65.22,16-65.22,50.39,0,30.83,21.34,50.4,67.59,50.4C1837.34,848,1877.06,822.48,1877.06,772.09Z"/>
          <path class="8a588f36-5947-47c5-b8d6-3655d6e80135" d="M1985,619.71a19,19,0,1,1,38,0v275.7c0,49.81-36.17,88.94-86.57,88.94a17.79,17.79,0,1,1,0-35.58c28.46,0,48.62-23.71,48.62-53.36Zm-3.56-97.24c0-17.19,8.31-23.72,22.54-23.72s22.53,6.53,22.53,23.72c0,14.23-8.31,22.53-22.53,22.53S1981.42,536.7,1981.42,522.47Z"/>
          <path class="8a588f36-5947-47c5-b8d6-3655d6e80135" d="M2130.24,663c-5.93,6.52-10.08,8.3-15.41,8.3a17.21,17.21,0,0,1-17.2-17.19,18.36,18.36,0,0,1,3-10.08c16.6-26.09,48.62-46.84,98.42-46.84,68.78,0,106.73,40.31,106.73,100.79V861a18.39,18.39,0,0,1-36.77,0V839.68c-14.82,27.87-49.21,42.69-84.78,42.69-62.85,0-102.58-30.24-102.58-84.79,0-52.17,39.73-83.6,103.76-83.6H2269V698c0-40.31-26.68-65.22-70-65.22C2167.6,632.75,2148.62,642.24,2130.24,663ZM2269,772.09v-24.9h-83.6c-38.53,0-65.22,16-65.22,50.39,0,30.83,21.35,50.4,67.6,50.4C2229.26,848,2269,822.48,2269,772.09Z"/>
          <path class="8a588f36-5947-47c5-b8d6-3655d6e80135" d="M2408.33,669.51c0,62.26,155.94,39.14,155.94,134,0,54-44.47,78.27-100.8,78.27-48.62,0-86-23.13-101.38-42.69-3-4.16-4.16-7.12-4.16-11.27a17.21,17.21,0,0,1,17.2-17.2c3.55,0,8.3,1.19,13,5.94,18.38,18.37,42.1,29.05,75.3,29.05,33.8,0,62.85-11.27,62.85-42.1,0-61.07-155.93-36.76-155.93-134,0-49.21,40.31-71.74,90.71-71.74,40.32,0,71.74,13.64,90.13,37.94a18.13,18.13,0,0,1,4.14,11.27,17.2,17.2,0,0,1-17.19,17.2,16.85,16.85,0,0,1-12.45-5.34c-16-15.42-33.8-24.9-64.63-24.9C2434.42,633.94,2408.33,642.24,2408.33,669.51Z"/>
        </g>
        <path class="8a588f36-5947-47c5-b8d6-3655d6e80135" d="M398,199.74A41.1,41.1,0,0,0,346.69,227L274.15,464.34c28,1.51,54.8,7.17,82.2,12.2l68.93-225.49A41.08,41.08,0,0,0,398,199.74Z"/>
        <path class="879c7484-7beb-4632-a3d7-559eef09fa7c" d="M392.86,357.13l-14.57,47.66-7.85,25.66-1.8,5.87c-2.73-.47-5.46-.91-8.19-1.35-8.57-1.37-17.19-2.63-25.8-3.76-16.61-2.18-33-3.82-48.85-5l1.73-5.65,7.66-25.1,15.21-49.73q17.13,1.64,34.94,4,19.71,2.58,39.35,6Q388.79,356.4,392.86,357.13Z"/>
        <path class="138f0288-01db-4022-8a3f-aecb08e5d56e" d="M406.52,312.47l-4,13-7.86,25.72-1.81,5.9-10.59,34.66q-10.77-1.69-21.56-3.1c-19.56-2.57-38.79-4.41-57.28-5.53-1.47-.1-2.93-.18-4.38-.25l11.35-37.14,1.74-5.7,7.71-25.23,3.88-12.72,4.35.37q21.15,1.81,43.32,4.71Q389,309.51,406.52,312.47Z"/>
        <path class="57796eb8-1452-4474-8e0d-2244006fa490" d="M520.64,873.7a41.09,41.09,0,0,1-1.91-82.14c39.8-2,153.64-20.31,202.52-80.48,21.19-26.09,28.5-57.73,22.34-96.73-9.47-60-71-104.77-120.89-131.79C551.25,443.89,452.76,414.18,352.49,401c-89.18-11.69-171.16-8.31-208.85,8.62-39.21,17.6-62.18,39.2-61.44,57.76.64,16.3,19,35.43,41.79,43.58,52.36,18.7,188.9,25.34,289.91,25.34a41.09,41.09,0,1,1,0,82.18c-54.71,0-239.28-2.17-317.56-30.13C40.76,568.53,2.08,521.23.08,470.67c-1.26-31.8,11.35-91.74,109.9-136,52.93-23.77,145.22-29.29,253.19-15.14C473,334,581.88,367,661.82,410.29c95,51.39,151.31,117.53,162.95,191.24,9.88,62.59-3.55,117-39.93,161.6-82.3,101-254.94,110.19-262.25,110.53C521.94,873.69,521.29,873.7,520.64,873.7Z"/>
        <path class="889ac390-b8ae-4af9-a689-5bf76a78693d" d="M375.21,536,350.62,616.5l-.37,1.19c-11.5-.29-23.82-.67-36.67-1.19q-6.4-.25-13-.55c-11.46-.54-23.26-1.17-35.17-1.92l.82-2.71,23.9-78.15c11.7.62,23.51,1.14,35.28,1.56q6.51.25,13,.44C350.85,535.56,363.16,535.83,375.21,536Z"/>
        <path class="2451384b-9b35-4f84-87e3-d587f19131d3" d="M635.7,489.87c-4.39-2.56-8.74-5-13-7.31a612.93,612.93,0,0,0-79.57-35.42l-18.93-92.9a830.46,830.46,0,0,1,90.62,33.21Z"/>
        <path class="8a588f36-5947-47c5-b8d6-3655d6e80135" d="M356.35,476.54,181.1,1049.88l-32,28.42a39.63,39.63,0,0,1-7.32.67,41.25,41.25,0,0,1-28.54-11.53l-10.77-41.58L274.15,464.33C302.12,465.85,329,471.52,356.35,476.54Z"/>
        <path class="f60f4c54-a479-4de2-8213-bfd3357f98df" d="M581.5,462.53q-18.43-8.05-38.37-15.39C526.39,441,509,435.26,491,430l-18.32-89.91c17.5,4.28,34.71,9,51.52,14.12q19.27,5.86,37.75,12.4h0Z"/>
        <path class="57796eb8-1452-4474-8e0d-2244006fa490" d="M622.54,840.54a41.1,41.1,0,0,1-40.22-32.9L427.79,49.3a41.09,41.09,0,1,1,80.52-16.41L662.84,791.24a41.15,41.15,0,0,1-40.3,49.3Z"/>
      </g>
    </g>
  </g>
</svg>
